<!-- light.svg -->
<svg width="148" height="148" viewBox="0 0 148 148" fill="none" xmlns="http://www.w3.org/2000/svg">
<circle cx="74" cy="74" r="74" fill="#2F363D"/>
<path d="M81.0492 31.6375C80.8101 32.5561 81.0332 33.4788 81.604 34.2894C84.1202 37.3037 86.1702 40.7743 87.5239 44.584C88.8795 48.1636 89.5387 52.0824 89.5026 56.2253C89.4212 65.5469 85.5333 74.0296 79.3553 80.0754C73.1772 86.1212 64.5924 89.8443 55.2318 89.7626C51.3026 89.7283 47.4951 89.0045 44.0382 87.8235C40.3513 86.5253 37.016 84.6548 34.148 82.2128C32.8859 81.166 31.0349 81.3801 29.9837 82.6369C29.3989 83.4374 29.1597 84.356 29.3828 85.2787C31.9554 95.0837 37.7748 103.651 45.5799 109.819C53.2714 115.756 62.833 119.292 73.2336 119.383C85.83 119.493 97.3149 114.529 105.708 106.316C114.101 98.1024 119.284 86.8689 119.394 74.21C119.487 63.6225 115.874 53.8084 109.817 45.9295C103.646 37.9344 94.7982 32.1027 84.6498 29.5973C83.0359 29.1229 81.41 30.0294 81.0492 31.6375Z" fill="#F8E3A1"/>
</svg>